# Made in Blockbench 4.3.1
mtllib pyramid.mtl

o cube
v 1 0.5 0
v 1 0.5 0
v 1 0 1
v 1 0 0
v 0 0.5 0
v 0 0.5 0
v 0 0 1
v 0 0 0
vt 0 0.5
vt 1 1
vt 1 0.5
vt 1 1
vt 0 1
vt 1 0.5
vt 1 0
vt 1 1
vt 0 0
vt 0 1
vt 1 0
vt 1 1
vt 0 1
vt 0 0
vt 1 0
vt 1 1
vt 0 1
vt 0 0
vt 1 1
vt 0 1
vt 0 0.5
vt 1 0.5
vt 1 0.5
vt 0 1
vt 0 0.5
vt 1 1
vt 0 0.5
vt 1 0.5
vn -1 0 0
vn 0 0 0
vn 0 0 0
vn 0 -1 0
vn 0 0.8944271909999161 0.44721359549995804
vn 0 0 -1
vn -1 0 0
vn 1 0 0
usemtl m_0
f 3/1/1 2/2/1 4/3/1
f 5/4/2 6/5/2 7/6/2
f 1/7/3 2/8/3 5/9/3 6/10/3
f 4/11/4 3/12/4 7/13/4 8/14/4
f 3/15/5 1/16/5 5/17/5 7/18/5
f 6/19/6 2/20/6 4/21/6 8/22/6
f 3/23/7 1/24/7 4/25/7
f 5/26/8 7/27/8 8/28/8